<?xml version="1.0" encoding="UTF-8"?>
<svg id="Layer_1" data-name="Layer 1" xmlns="http://www.w3.org/2000/svg" viewBox="0 0 270.57 119.04">
  <defs>
    <style>
      .cls-1 {
        fill: #b07d4f;
      }
    </style>
  </defs>
  <g>
    <polygon class="cls-1" points="155.45 55.39 165.4 55.39 165.4 53.35 155.45 53.35 155.45 42.91 163.65 42.91 163.65 40.87 155.45 40.87 155.45 36.41 165.4 36.41 165.4 34.36 153.4 34.36 153.4 34.37 153.4 36.41 153.4 53.35 153.4 55.39 153.4 55.39 155.45 55.39 155.45 55.39"/>
    <polygon class="cls-1" points="230.96 55.39 230.96 34.37 228.92 34.37 228.92 40.87 220.87 40.87 220.87 34.37 218.82 34.37 218.82 55.39 220.87 55.39 220.87 42.91 228.92 42.91 228.92 55.39 230.96 55.39"/>
    <polygon class="cls-1" points="170.83 48.68 173.39 44.84 180.35 55.3 182.81 55.3 174.62 43 180.3 34.46 177.84 34.46 170.83 44.99 170.83 34.46 168.79 34.46 168.79 55.3 170.83 55.3 170.83 48.68"/>
    <path class="cls-1" d="M130.79,34.55h-.46l-13.87,20.84h2.46l2.89-4.34h8.98v4.34h2.04v-20.84h-2.04Zm0,14.45h-7.62l7.62-11.45v11.45Z"/>
    <path class="cls-1" d="M201.64,55.39l2.89-4.34h8.98v4.34h2.04v-20.84h-2.5l-13.87,20.84h2.46Zm11.87-17.84v11.45h-7.62l7.62-11.45Z"/>
    <polygon class="cls-1" points="150.16 55.39 150.16 34.55 150.12 34.55 148.12 34.55 147.66 34.55 133.79 55.39 136.24 55.39 148.12 37.55 148.12 55.39 150.16 55.39"/>
    <path class="cls-1" d="M249.9,34.55h-2.5l-12.62,18.96h-2.59v2.05h19.57v-2.05h-1.86v-18.96Zm-2.04,3v15.95h-10.62l10.62-15.95Z"/>
    <path class="cls-1" d="M191.58,55.36c3.09,0,6.06-1.33,8.12-3.65l-1.53-1.36c-1.68,1.89-4.09,2.97-6.6,2.97-4.88,0-8.85-3.97-8.85-8.85s3.97-8.85,8.85-8.85c2.64,0,5.12,1.17,6.81,3.2l1.57-1.31c-2.08-2.5-5.13-3.94-8.38-3.94-6.01,0-10.89,4.89-10.89,10.89s4.89,10.89,10.89,10.89Z"/>
    <path class="cls-1" d="M262.34,33.66c-2.49,0-4.72,1.12-6.23,2.87v-2.16h-2.05v21.02h2.05v-8.14c1.51,1.75,3.74,2.87,6.23,2.87,4.54,0,8.23-3.69,8.23-8.23s-3.69-8.23-8.23-8.23Zm0,14.41c-3.41,0-6.18-2.77-6.18-6.18s2.77-6.18,6.18-6.18,6.18,2.77,6.18,6.18-2.77,6.18-6.18,6.18Z"/>
    <polygon class="cls-1" points="128.28 62.82 125.83 62.82 118.82 73.36 118.82 62.82 116.77 62.82 116.77 83.66 118.82 83.66 118.82 77.05 121.37 73.2 128.34 83.66 130.79 83.66 122.6 71.36 128.28 62.82"/>
    <path class="cls-1" d="M192.28,62.91h-.46l-13.87,20.84h2.46l2.89-4.34h8.98v4.34h2.04v-20.84h-2.04Zm0,14.45h-7.62l7.62-11.45v11.45Z"/>
    <polygon class="cls-1" points="173.59 62.91 173.14 62.91 165.93 73.73 165.93 62.91 165.89 62.91 163.89 62.91 163.43 62.91 149.56 83.75 152.02 83.75 163.89 65.91 163.89 76.81 163.89 80.5 165.93 77.42 173.59 65.91 173.59 83.75 175.64 83.75 175.64 62.91 175.59 62.91 173.59 62.91"/>
    <path class="cls-1" d="M205.79,62.02c-2.49,0-4.72,1.12-6.23,2.87v-2.16h-2.05v21.02h2.05v-8.14c1.51,1.75,3.74,2.87,6.23,2.87,4.54,0,8.23-3.69,8.23-8.23s-3.69-8.23-8.23-8.23Zm0,14.41c-3.41,0-6.18-2.77-6.18-6.18s2.77-6.18,6.18-6.18,6.18,2.77,6.18,6.18-2.77,6.18-6.18,6.18Z"/>
    <path class="cls-1" d="M140.65,61.6c-6.19,0-11.22,5.03-11.22,11.22s5.03,11.22,11.22,11.22,11.22-5.03,11.22-11.22-5.03-11.22-11.22-11.22Zm0,20.4c-5.06,0-9.18-4.12-9.18-9.18s4.12-9.18,9.18-9.18,9.18,4.12,9.18,9.18-4.12,9.18-9.18,9.18Z"/>
  </g>
  <g>
    <path class="cls-1" d="M7.92,59.53c0-23.8,18.49-43.36,41.87-45.07v-2.51C25.04,13.68,5.42,34.35,5.42,59.53s21.33,47.63,47.57,47.71v-2.5c-24.87-.08-45.07-20.33-45.07-45.21Z"/>
    <path class="cls-1" d="M55.49,6.46v2.5c26.83,1.24,48.27,23.45,48.27,50.57s-19.77,47.55-45.09,50.32v2.52c26.7-2.78,47.59-25.42,47.59-52.84S83.7,7.7,55.49,6.46Z"/>
    <polygon class="cls-1" points="42.7 83.75 47.55 83.75 47.55 71.71 42.7 74.56 42.7 83.75"/>
    <polygon class="cls-1" points="47.55 54.28 47.55 34.34 42.7 34.34 42.7 62.5 47.49 54.36 47.55 54.28"/>
    <path class="cls-1" d="M55.49,104.68v-20.93h-2.5v26.41c-27.86-.08-50.49-22.76-50.49-50.63S23.42,10.75,49.79,9.02v-2.51C22.04,8.25,0,31.36,0,59.53s23.76,53.05,52.99,53.13v6.37h2.5v-6.43s.01,0,.02,0v-7.92s-.01,0-.02,0Z"/>
    <path class="cls-1" d="M55.49,11.88V0h-2.5V34.34h2.5V14.38c23.84,1.23,42.85,21.01,42.85,45.15s-17.35,42.12-39.67,44.86v2.52c23.71-2.76,42.17-22.95,42.17-47.38S80.71,13.12,55.49,11.88Z"/>
    <polygon class="cls-1" points="58.69 65.14 58.43 65.3 56.66 66.34 70.47 83.75 76.29 83.75 60.16 63.18 58.87 64.9 58.69 65.14"/>
    <path class="cls-1" d="M82.47,30.02c-.06,0-.12,.02-.18,.06l-33.51,25.05-1.24,2.11-4.85,8.23-6.36,10.8c-.06,.1,.02,.22,.12,.22,.02,0,.05,0,.07-.02l6.17-3.63,4.85-2.86,8.18-4.82,1.95-1.15,1.53-2.05,23.52-31.47c.16-.22-.02-.47-.24-.47Zm-30.82,31.12c-.87-.87-.87-2.27,0-3.14,.43-.43,1-.65,1.57-.65s1.14,.22,1.57,.65c.87,.87,.87,2.27,0,3.14-.43,.43-1,.65-1.57,.65s-1.14-.22-1.57-.65Z"/>
  </g>
</svg>