<?xml version="1.0" encoding="UTF-8"?>
<svg id="Layer_1" data-name="Layer 1" xmlns="http://www.w3.org/2000/svg" viewBox="0 0 106.27 119.04">
  <defs>
    <style>
      .cls-1 {
        fill: #1b4332;
      }
    </style>
  </defs>
  <path class="cls-1" d="M7.92,59.53c0-23.8,18.49-43.36,41.87-45.07v-2.51C25.04,13.68,5.42,34.35,5.42,59.53s21.33,47.63,47.57,47.71v-2.5c-24.87-.08-45.07-20.33-45.07-45.21Z"/>
  <path class="cls-1" d="M55.49,6.46v2.5c26.83,1.24,48.27,23.45,48.27,50.57s-19.77,47.55-45.09,50.32v2.52c26.7-2.78,47.59-25.42,47.59-52.84S83.7,7.7,55.49,6.46Z"/>
  <polygon class="cls-1" points="42.7 83.75 47.55 83.75 47.55 71.71 42.7 74.56 42.7 83.75"/>
  <polygon class="cls-1" points="47.55 54.28 47.55 34.34 42.7 34.34 42.7 62.5 47.49 54.36 47.55 54.28"/>
  <path class="cls-1" d="M55.49,104.68v-20.93h-2.5v26.41c-27.86-.08-50.49-22.76-50.49-50.63S23.42,10.75,49.79,9.02v-2.51C22.04,8.25,0,31.36,0,59.53s23.76,53.05,52.99,53.13v6.37h2.5v-6.43s.01,0,.02,0v-7.92s-.01,0-.02,0Z"/>
  <path class="cls-1" d="M55.49,11.88V0h-2.5V34.34h2.5V14.38c23.84,1.23,42.85,21.01,42.85,45.15s-17.35,42.12-39.67,44.86v2.52c23.71-2.76,42.17-22.95,42.17-47.38S80.71,13.12,55.49,11.88Z"/>
  <polygon class="cls-1" points="58.69 65.14 58.43 65.3 56.66 66.34 70.47 83.75 76.29 83.75 60.16 63.18 58.87 64.9 58.69 65.14"/>
  <path class="cls-1" d="M82.47,30.02c-.06,0-.12,.02-.18,.06l-33.51,25.05-1.24,2.11-4.85,8.23-6.36,10.8c-.06,.1,.02,.22,.12,.22,.02,0,.05,0,.07-.02l6.17-3.63,4.85-2.86,8.18-4.82,1.95-1.15,1.53-2.05,23.52-31.47c.16-.22-.02-.47-.24-.47Zm-30.82,31.12c-.87-.87-.87-2.27,0-3.14,.43-.43,1-.65,1.57-.65s1.14,.22,1.57,.65c.87,.87,.87,2.27,0,3.14-.43,.43-1,.65-1.57,.65s-1.14-.22-1.57-.65Z"/>
</svg>