<?xml version="1.0" encoding="UTF-8"?>
<svg id="Layer_1" data-name="Layer 1" xmlns="http://www.w3.org/2000/svg" viewBox="0 0 140.88 174.51">
  <defs>
    <style>
      .cls-1 {
        fill: #b07d4f;
      }
    </style>
  </defs>
  <g>
    <polygon class="cls-1" points="35.64 148.32 44.73 148.32 44.73 146.45 35.64 146.45 35.64 136.91 43.13 136.91 43.13 135.04 35.64 135.04 35.64 130.97 44.73 130.97 44.73 129.1 33.77 129.1 33.77 129.1 33.77 130.97 33.77 146.45 33.77 148.32 33.77 148.32 35.64 148.32 35.64 148.32"/>
    <polygon class="cls-1" points="104.67 148.32 104.67 129.1 102.8 129.1 102.8 135.04 95.44 135.04 95.44 129.1 93.57 129.1 93.57 148.32 95.44 148.32 95.44 136.91 102.8 136.91 102.8 148.32 104.67 148.32"/>
    <polygon class="cls-1" points="49.7 142.19 52.04 138.67 58.4 148.24 60.65 148.24 53.16 136.99 58.35 129.18 56.11 129.18 49.7 138.81 49.7 129.18 47.83 129.18 47.83 148.24 49.7 148.24 49.7 142.19"/>
    <path class="cls-1" d="M13.1,129.27h-.42L0,148.32H2.25l2.64-3.97H13.1v3.97h1.87v-19.05h-1.87Zm0,13.21H6.13l6.97-10.47v10.47Z"/>
    <path class="cls-1" d="M77.86,148.32l2.64-3.97h8.21v3.97h1.87v-19.05h-2.29l-12.68,19.05h2.25Zm10.85-16.31v10.47h-6.97l6.97-10.47Z"/>
    <polygon class="cls-1" points="30.8 148.32 30.8 129.27 30.76 129.27 28.93 129.27 28.52 129.27 15.83 148.32 18.08 148.32 28.93 132.01 28.93 148.32 30.8 148.32"/>
    <path class="cls-1" d="M121.98,129.27h-2.29l-11.53,17.33h-2.37v1.87h17.89v-1.87h-1.7v-17.33Zm-1.87,2.75v14.58h-9.7l9.7-14.58Z"/>
    <path class="cls-1" d="M68.67,148.29c2.83,0,5.54-1.22,7.43-3.34l-1.4-1.24c-1.54,1.73-3.74,2.71-6.03,2.71-4.46,0-8.09-3.63-8.09-8.09s3.63-8.09,8.09-8.09c2.41,0,4.68,1.07,6.22,2.92l1.44-1.19c-1.9-2.29-4.69-3.6-7.66-3.6-5.49,0-9.96,4.47-9.96,9.96s4.47,9.96,9.96,9.96Z"/>
    <path class="cls-1" d="M133.35,128.45c-2.28,0-4.32,1.02-5.7,2.63v-1.98h-1.87v19.22h1.87v-7.45c1.38,1.6,3.42,2.63,5.7,2.63,4.15,0,7.52-3.37,7.52-7.52s-3.37-7.52-7.52-7.52Zm0,13.18c-3.12,0-5.65-2.54-5.65-5.65s2.54-5.65,5.65-5.65,5.65,2.54,5.65,5.65-2.54,5.65-5.65,5.65Z"/>
    <polygon class="cls-1" points="39.93 155.11 37.68 155.11 31.27 164.74 31.27 155.11 29.4 155.11 29.4 174.16 31.27 174.16 31.27 168.12 33.61 164.6 39.97 174.16 42.22 174.16 34.73 162.91 39.93 155.11"/>
    <path class="cls-1" d="M98.43,155.19h-.42l-12.68,19.05h2.25l2.64-3.97h8.21v3.97h1.87v-19.05h-1.87Zm0,13.21h-6.97l6.97-10.47v10.47Z"/>
    <polygon class="cls-1" points="81.35 155.19 80.93 155.19 74.34 165.09 74.34 155.19 74.3 155.19 72.47 155.19 72.06 155.19 59.38 174.25 61.62 174.25 72.47 157.94 72.47 167.9 72.47 171.27 74.34 168.46 81.35 157.94 81.35 174.25 83.22 174.25 83.22 155.19 83.17 155.19 81.35 155.19"/>
    <path class="cls-1" d="M110.78,154.38c-2.28,0-4.32,1.02-5.7,2.62v-1.98h-1.87v19.22h1.87v-7.45c1.38,1.6,3.42,2.62,5.7,2.62,4.15,0,7.52-3.37,7.52-7.52s-3.37-7.52-7.52-7.52Zm0,13.18c-3.12,0-5.65-2.54-5.65-5.65s2.54-5.65,5.65-5.65,5.65,2.54,5.65,5.65-2.54,5.65-5.65,5.65Z"/>
    <path class="cls-1" d="M51.23,154c-5.66,0-10.26,4.6-10.26,10.26s4.6,10.26,10.26,10.26,10.26-4.6,10.26-10.26-4.6-10.26-10.26-10.26Zm0,18.65c-4.63,0-8.39-3.76-8.39-8.39s3.76-8.39,8.39-8.39,8.39,3.76,8.39,8.39-3.76,8.39-8.39,8.39Z"/>
  </g>
  <g>
    <path class="cls-1" d="M25.23,59.53c0-23.8,18.49-43.36,41.87-45.07v-2.51c-24.75,1.72-44.37,22.4-44.37,47.58s21.33,47.63,47.57,47.71v-2.5c-24.87-.08-45.07-20.33-45.07-45.21Z"/>
    <path class="cls-1" d="M72.8,6.46v2.5c26.83,1.24,48.27,23.45,48.27,50.57s-19.77,47.55-45.09,50.32v2.52c26.7-2.78,47.59-25.42,47.59-52.84S101,7.7,72.8,6.46Z"/>
    <polygon class="cls-1" points="60 83.75 64.85 83.75 64.85 71.71 60 74.56 60 83.75"/>
    <polygon class="cls-1" points="64.85 54.28 64.85 34.34 60 34.34 60 62.5 64.8 54.36 64.85 54.28"/>
    <path class="cls-1" d="M72.8,104.68v-20.93h-2.5v26.41c-27.86-.08-50.49-22.76-50.49-50.63S40.73,10.75,67.09,9.02v-2.51c-27.74,1.73-49.79,24.84-49.79,53.02s23.76,53.05,52.99,53.13v6.37h2.5v-6.43s.01,0,.02,0v-7.92s-.01,0-.02,0Z"/>
    <path class="cls-1" d="M72.8,11.88V0h-2.5V34.34h2.5V14.38c23.84,1.23,42.85,21.01,42.85,45.15s-17.35,42.12-39.67,44.86v2.52c23.71-2.76,42.17-22.95,42.17-47.38S98.01,13.12,72.8,11.88Z"/>
    <polygon class="cls-1" points="75.99 65.14 75.73 65.3 73.97 66.34 87.77 83.75 93.6 83.75 77.46 63.18 76.17 64.9 75.99 65.14"/>
    <path class="cls-1" d="M99.78,30.02c-.06,0-.12,.02-.18,.06l-33.51,25.05-1.24,2.11-4.85,8.23-6.36,10.8c-.06,.1,.02,.22,.12,.22,.02,0,.05,0,.07-.02l6.17-3.63,4.85-2.86,8.18-4.82,1.95-1.15,1.53-2.05,23.52-31.47c.16-.22-.02-.47-.24-.47Zm-30.82,31.12c-.87-.87-.87-2.27,0-3.14,.43-.43,1-.65,1.57-.65s1.14,.22,1.57,.65c.87,.87,.87,2.27,0,3.14-.43,.43-1,.65-1.57,.65s-1.14-.22-1.57-.65Z"/>
  </g>
</svg>