<?xml version="1.0" encoding="UTF-8"?>
<svg id="Layer_1" data-name="Layer 1" xmlns="http://www.w3.org/2000/svg" viewBox="0 0 293.12 25.11">
  <defs>
    <style>
      .cls-1 {
        fill: #b07d4f;
      }
    </style>
  </defs>
  <g>
    <polygon class="cls-1" points="43.61 24.67 54.74 24.67 54.74 22.38 43.61 22.38 43.61 10.71 52.78 10.71 52.78 8.42 43.61 8.42 43.61 3.44 54.74 3.44 54.74 1.15 41.32 1.15 41.32 1.15 41.32 3.44 41.32 22.38 41.32 24.67 41.32 24.67 43.61 24.67 43.61 24.67"/>
    <polygon class="cls-1" points="128.09 24.67 128.09 1.15 125.8 1.15 125.8 8.42 116.79 8.42 116.79 1.15 114.5 1.15 114.5 24.67 116.79 24.67 116.79 10.71 125.8 10.71 125.8 24.67 128.09 24.67"/>
    <polygon class="cls-1" points="60.82 17.17 63.68 12.87 71.47 24.57 74.22 24.57 65.05 10.8 71.41 1.25 68.66 1.25 60.82 13.04 60.82 1.25 58.53 1.25 58.53 24.57 60.82 24.57 60.82 17.17"/>
    <path class="cls-1" d="M16.03,1.35h-.51L0,24.67H2.75l3.23-4.86h10.05v4.86h2.29V1.35h-2.29Zm0,16.17H7.5L16.03,4.72v12.81Z"/>
    <path class="cls-1" d="M95.28,24.67l3.23-4.86h10.05v4.86h2.29V1.35h-2.8l-15.52,23.32h2.75Zm13.28-19.95v12.81h-8.52l8.52-12.81Z"/>
    <polygon class="cls-1" points="37.69 24.67 37.69 1.35 37.64 1.35 35.41 1.35 34.89 1.35 19.38 24.67 22.13 24.67 35.41 4.72 35.41 24.67 37.69 24.67"/>
    <path class="cls-1" d="M149.27,1.35h-2.8l-14.11,21.21h-2.9v2.29h21.89v-2.29h-2.08V1.35Zm-2.29,3.36V22.56h-11.88l11.88-17.84Z"/>
    <path class="cls-1" d="M84.03,24.63c3.46,0,6.77-1.49,9.09-4.09l-1.71-1.52c-1.88,2.11-4.57,3.32-7.38,3.32-5.46,0-9.9-4.44-9.9-9.9s4.44-9.9,9.9-9.9c2.95,0,5.73,1.3,7.62,3.58l1.76-1.46c-2.33-2.8-5.74-4.4-9.38-4.4-6.72,0-12.19,5.47-12.19,12.19s5.47,12.19,12.19,12.19Z"/>
    <path class="cls-1" d="M163.19,.36c-2.79,0-5.28,1.25-6.97,3.21V1.15h-2.29V24.67h2.29V15.56c1.69,1.96,4.19,3.21,6.97,3.21,5.08,0,9.21-4.13,9.21-9.21S168.26,.36,163.19,.36Zm0,16.12c-3.81,0-6.92-3.1-6.92-6.92s3.1-6.92,6.92-6.92,6.92,3.1,6.92,6.92-3.1,6.92-6.92,6.92Z"/>
  </g>
  <g>
    <polygon class="cls-1" points="197.2 1.36 194.46 1.36 186.61 13.15 186.61 1.36 184.33 1.36 184.33 24.68 186.61 24.68 186.61 17.28 189.48 12.98 197.26 24.68 200.01 24.68 190.85 10.91 197.2 1.36"/>
    <path class="cls-1" d="M268.8,1.46h-.51l-15.52,23.32h2.75l3.23-4.86h10.05v4.86h2.29V1.46h-2.29Zm0,16.17h-8.52l8.52-12.81v12.81Z"/>
    <polygon class="cls-1" points="247.89 1.46 247.38 1.46 239.32 13.57 239.32 1.46 239.27 1.46 237.04 1.46 236.52 1.46 221.01 24.78 223.76 24.78 237.04 4.83 237.04 17.01 237.04 21.14 239.32 17.7 247.89 4.83 247.89 24.78 250.18 24.78 250.18 1.46 250.13 1.46 247.89 1.46"/>
    <path class="cls-1" d="M283.91,.47c-2.79,0-5.28,1.25-6.97,3.21V1.26h-2.29V24.78h2.29V15.67c1.69,1.96,4.19,3.21,6.97,3.21,5.08,0,9.21-4.13,9.21-9.21s-4.13-9.21-9.21-9.21Zm0,16.12c-3.81,0-6.92-3.1-6.92-6.92s3.1-6.92,6.92-6.92,6.92,3.1,6.92,6.92-3.1,6.92-6.92,6.92Z"/>
    <path class="cls-1" d="M211.03,0c-6.92,0-12.55,5.63-12.55,12.55s5.63,12.55,12.55,12.55,12.55-5.63,12.55-12.55-5.63-12.55-12.55-12.55Zm0,22.82c-5.66,0-10.27-4.6-10.27-10.27s4.6-10.27,10.27-10.27,10.27,4.6,10.27,10.27-4.6,10.27-10.27,10.27Z"/>
  </g>
</svg>