<?xml version="1.0" encoding="UTF-8"?>
<svg id="Layer_1" data-name="Layer 1" xmlns="http://www.w3.org/2000/svg" viewBox="0 0 410.32 119.04">
  <defs>
    <style>
      .cls-1 {
        fill: #b07d4f;
      }
    </style>
  </defs>
  <g>
    <g>
      <polygon class="cls-1" points="160.81 71.63 171.94 71.63 171.94 69.35 160.81 69.35 160.81 57.67 169.98 57.67 169.98 55.39 160.81 55.39 160.81 50.4 171.94 50.4 171.94 48.11 158.52 48.11 158.52 48.12 158.52 50.4 158.52 69.35 158.52 71.63 158.52 71.63 160.81 71.63 160.81 71.63"/>
      <polygon class="cls-1" points="245.29 71.63 245.29 48.12 243 48.12 243 55.39 233.99 55.39 233.99 48.12 231.71 48.12 231.71 71.63 233.99 71.63 233.99 57.67 243 57.67 243 71.63 245.29 71.63"/>
      <polygon class="cls-1" points="178.02 64.13 180.88 59.83 188.67 71.53 191.42 71.53 182.26 57.77 188.61 48.22 185.86 48.22 178.02 60 178.02 48.22 175.73 48.22 175.73 71.53 178.02 71.53 178.02 64.13"/>
      <path class="cls-1" d="M133.23,48.32h-.51l-15.52,23.32h2.75l3.23-4.86h10.05v4.86h2.29v-23.32h-2.29Zm0,16.17h-8.52l8.52-12.81v12.81Z"/>
      <path class="cls-1" d="M212.48,71.63l3.23-4.86h10.05v4.86h2.29v-23.32h-2.8l-15.52,23.32h2.75Zm13.28-19.95v12.81h-8.52l8.52-12.81Z"/>
      <polygon class="cls-1" points="154.89 71.63 154.89 48.32 154.84 48.32 152.61 48.32 152.1 48.32 136.58 71.63 139.33 71.63 152.61 51.68 152.61 71.63 154.89 71.63"/>
      <path class="cls-1" d="M266.47,48.32h-2.8l-14.11,21.21h-2.9v2.29h21.89v-2.29h-2.08v-21.21Zm-2.29,3.36v17.84h-11.88l11.88-17.84Z"/>
      <path class="cls-1" d="M201.23,71.59c3.46,0,6.77-1.49,9.09-4.09l-1.71-1.52c-1.88,2.11-4.57,3.32-7.38,3.32-5.46,0-9.9-4.44-9.9-9.9s4.44-9.9,9.9-9.9c2.95,0,5.73,1.3,7.62,3.58l1.76-1.46c-2.33-2.8-5.74-4.4-9.38-4.4-6.72,0-12.19,5.47-12.19,12.19s5.47,12.19,12.19,12.19Z"/>
      <path class="cls-1" d="M280.39,47.33c-2.79,0-5.28,1.25-6.97,3.21v-2.42h-2.29v23.52h2.29v-9.11c1.69,1.96,4.19,3.21,6.97,3.21,5.08,0,9.21-4.13,9.21-9.21s-4.13-9.21-9.21-9.21Zm0,16.12c-3.81,0-6.92-3.1-6.92-6.92s3.1-6.92,6.92-6.92,6.92,3.1,6.92,6.92-3.1,6.92-6.92,6.92Z"/>
    </g>
    <g>
      <polygon class="cls-1" points="314.41 48.33 311.66 48.33 303.82 60.11 303.82 48.33 301.53 48.33 301.53 71.64 303.82 71.64 303.82 64.24 306.68 59.94 314.46 71.64 317.21 71.64 308.05 57.88 314.41 48.33"/>
      <path class="cls-1" d="M386,48.43h-.51l-15.52,23.32h2.75l3.23-4.86h10.05v4.86h2.29v-23.32h-2.29Zm0,16.17h-8.52l8.52-12.81v12.81Z"/>
      <polygon class="cls-1" points="365.09 48.43 364.58 48.43 356.52 60.54 356.52 48.43 356.47 48.43 354.24 48.43 353.73 48.43 338.21 71.74 340.96 71.74 354.24 51.79 354.24 63.97 354.24 68.1 356.52 64.66 365.09 51.79 365.09 71.74 367.38 71.74 367.38 48.43 367.33 48.43 365.09 48.43"/>
      <path class="cls-1" d="M401.11,47.43c-2.79,0-5.28,1.25-6.97,3.21v-2.42h-2.29v23.52h2.29v-9.11c1.69,1.96,4.19,3.21,6.97,3.21,5.08,0,9.21-4.13,9.21-9.21s-4.13-9.21-9.21-9.21Zm0,16.12c-3.81,0-6.92-3.1-6.92-6.92s3.1-6.92,6.92-6.92,6.92,3.1,6.92,6.92-3.1,6.92-6.92,6.92Z"/>
      <path class="cls-1" d="M328.24,46.96c-6.92,0-12.55,5.63-12.55,12.55s5.63,12.55,12.55,12.55,12.55-5.63,12.55-12.55-5.63-12.55-12.55-12.55Zm0,22.82c-5.66,0-10.27-4.6-10.27-10.27s4.6-10.27,10.27-10.27,10.27,4.6,10.27,10.27-4.6,10.27-10.27,10.27Z"/>
    </g>
  </g>
  <g>
    <path class="cls-1" d="M7.92,59.53c0-23.8,18.49-43.36,41.87-45.07v-2.51C25.04,13.68,5.42,34.35,5.42,59.53s21.33,47.63,47.57,47.71v-2.5c-24.87-.08-45.07-20.33-45.07-45.21Z"/>
    <path class="cls-1" d="M55.49,6.46v2.5c26.83,1.24,48.27,23.45,48.27,50.57s-19.77,47.55-45.09,50.32v2.52c26.7-2.78,47.59-25.42,47.59-52.84S83.7,7.7,55.49,6.46Z"/>
    <polygon class="cls-1" points="42.7 83.75 47.55 83.75 47.55 71.71 42.7 74.56 42.7 83.75"/>
    <polygon class="cls-1" points="47.55 54.28 47.55 34.34 42.7 34.34 42.7 62.5 47.49 54.36 47.55 54.28"/>
    <path class="cls-1" d="M55.49,104.68v-20.93h-2.5v26.41c-27.86-.08-50.49-22.76-50.49-50.63S23.42,10.75,49.79,9.02v-2.51C22.04,8.25,0,31.36,0,59.53s23.76,53.05,52.99,53.13v6.37h2.5v-6.43s.01,0,.02,0v-7.92s-.01,0-.02,0Z"/>
    <path class="cls-1" d="M55.49,11.88V0h-2.5V34.34h2.5V14.38c23.84,1.23,42.85,21.01,42.85,45.15s-17.35,42.12-39.67,44.86v2.52c23.71-2.76,42.17-22.95,42.17-47.38S80.71,13.12,55.49,11.88Z"/>
    <polygon class="cls-1" points="58.69 65.14 58.43 65.3 56.66 66.34 70.47 83.75 76.29 83.75 60.16 63.18 58.87 64.9 58.69 65.14"/>
    <path class="cls-1" d="M82.47,30.02c-.06,0-.12,.02-.18,.06l-33.51,25.05-1.24,2.11-4.85,8.23-6.36,10.8c-.06,.1,.02,.22,.12,.22,.02,0,.05,0,.07-.02l6.17-3.63,4.85-2.86,8.18-4.82,1.95-1.15,1.53-2.05,23.52-31.47c.16-.22-.02-.47-.24-.47Zm-30.82,31.12c-.87-.87-.87-2.27,0-3.14,.43-.43,1-.65,1.57-.65s1.14,.22,1.57,.65c.87,.87,.87,2.27,0,3.14-.43,.43-1,.65-1.57,.65s-1.14-.22-1.57-.65Z"/>
  </g>
</svg>